<svg width="28" height="29" viewBox="0 0 28 29" fill="none" xmlns="http://www.w3.org/2000/svg">
<path d="M14 29C21.732 29 28 22.5081 28 14.5C28 6.49187 21.732 0 14 0C6.26801 0 0 6.49187 0 14.5C0 22.5081 6.26801 29 14 29Z" fill="#CEA5D0"/>
<path d="M21 19V7.35506C21.0011 7.04618 20.9413 6.74012 20.8242 6.45444C20.7071 6.16876 20.5349 5.90907 20.3175 5.69027C20.1001 5.47148 19.8418 5.29788 19.5573 5.17943C19.2729 5.06098 18.968 5 18.66 5H10.3481C9.72536 5 9.12811 5.24813 8.68775 5.68979C8.24739 6.13145 8 6.73046 8 7.35506V19H21ZM14.5 6.46682C14.5986 6.45617 14.6984 6.46646 14.7928 6.49703C14.8872 6.5276 14.9742 6.57776 15.048 6.64425C15.1218 6.71074 15.1808 6.79206 15.2212 6.88294C15.2617 6.97382 15.2826 7.0722 15.2826 7.1717C15.2826 7.27121 15.2617 7.3696 15.2212 7.46048C15.1808 7.55136 15.1218 7.63268 15.048 7.69917C14.9742 7.76566 14.8872 7.81583 14.7928 7.8464C14.6984 7.87696 14.5986 7.88725 14.5 7.8766C14.3266 7.85788 14.1663 7.77555 14.0498 7.64543C13.9332 7.51532 13.8688 7.34659 13.8688 7.1717C13.8688 6.99682 13.9332 6.82811 14.0498 6.69799C14.1663 6.56788 14.3266 6.48555 14.5 6.46682Z" fill="white"/>
<path d="M8 20V21.5404C8 22.1927 8.24739 22.8183 8.68775 23.2796C9.12811 23.7409 9.72536 24 10.3481 24H18.66C18.968 24 19.2729 23.9363 19.5573 23.8126C19.8418 23.6889 20.1001 23.5076 20.3175 23.2791C20.5349 23.0506 20.7071 22.7794 20.8242 22.481C20.9413 22.1827 21.0011 21.863 21 21.5404V20H8ZM14.5 22.6298C14.3266 22.6102 14.1663 22.5242 14.0498 22.3884C13.9332 22.2525 13.8688 22.0763 13.8688 21.8936C13.8688 21.711 13.9332 21.5348 14.0498 21.3989C14.1663 21.263 14.3266 21.177 14.5 21.1574C14.5986 21.1463 14.6984 21.1571 14.7928 21.189C14.8872 21.2209 14.9742 21.2733 15.048 21.3427C15.1218 21.4122 15.1808 21.4971 15.2212 21.592C15.2617 21.6869 15.2826 21.7897 15.2826 21.8936C15.2826 21.9975 15.2617 22.1003 15.2212 22.1952C15.1808 22.2901 15.1218 22.375 15.048 22.4445C14.9742 22.5139 14.8872 22.5663 14.7928 22.5982C14.6984 22.6302 14.5986 22.6409 14.5 22.6298Z" fill="white"/>
</svg>
