<svg width="28" height="28" viewBox="0 0 28 28" fill="none" xmlns="http://www.w3.org/2000/svg">
<path d="M14 28C21.732 28 28 21.732 28 14C28 6.26801 21.732 0 14 0C6.26801 0 0 6.26801 0 14C0 21.732 6.26801 28 14 28Z" fill="url(#paint0_linear_107:589)"/>
<path d="M18.3449 8.70547C18.154 8.70547 17.9673 8.76211 17.8085 8.8682C17.6497 8.97429 17.526 9.12508 17.4529 9.30151C17.3798 9.47793 17.3607 9.67206 17.3979 9.85935C17.4352 10.0466 17.5272 10.2187 17.6622 10.3537C17.7972 10.4887 17.9693 10.5807 18.1566 10.618C18.3438 10.6552 18.538 10.6361 18.7144 10.563C18.8908 10.4899 19.0416 10.3662 19.1477 10.2074C19.2538 10.0486 19.3104 9.86195 19.3104 9.67099C19.3104 9.41492 19.2087 9.16934 19.0276 8.98827C18.8466 8.8072 18.601 8.70547 18.3449 8.70547Z" fill="white"/>
<path d="M14.0631 9.94006C13.2633 9.94006 12.4814 10.1772 11.8164 10.6216C11.1513 11.066 10.633 11.6976 10.3269 12.4366C10.0208 13.1755 9.94071 13.9886 10.0967 14.7731C10.2528 15.5576 10.638 16.2782 11.2035 16.8438C11.7691 17.4093 12.4897 17.7945 13.2742 17.9505C14.0586 18.1066 14.8718 18.0265 15.6107 17.7204C16.3497 17.4143 16.9813 16.896 17.4257 16.2309C17.87 15.5659 18.1072 14.784 18.1072 13.9842C18.1072 12.9116 17.6811 11.883 16.9227 11.1246C16.1643 10.3661 15.1357 9.94006 14.0631 9.94006ZM14.0631 16.5721C13.5516 16.5705 13.0521 16.4174 12.6275 16.1321C12.203 15.8468 11.8725 15.442 11.6779 14.969C11.4832 14.496 11.4331 13.9759 11.5338 13.4744C11.6346 12.973 11.8817 12.5126 12.2439 12.1515C12.6062 11.7903 13.0673 11.5446 13.5691 11.4454C14.0709 11.3462 14.5908 11.3979 15.0632 11.594C15.5356 11.7901 15.9393 12.1218 16.2233 12.5472C16.5074 12.9726 16.6589 13.4727 16.6589 13.9842C16.6569 14.6712 16.3825 15.3295 15.8959 15.8146C15.4093 16.2997 14.7502 16.5721 14.0631 16.5721Z" fill="white"/>
<path d="M17.2763 22.1911H10.7234C9.41578 22.1911 8.1617 21.6716 7.23706 20.747C6.31241 19.8223 5.79297 18.5682 5.79297 17.2606V10.7077C5.79297 9.40011 6.31241 8.14602 7.23706 7.22138C8.1617 6.29674 9.41578 5.77728 10.7234 5.77728H17.2763C18.5839 5.77728 19.838 6.29674 20.7626 7.22138C21.6873 8.14602 22.2068 9.40011 22.2068 10.7077V17.2606C22.2068 18.5682 21.6873 19.8223 20.7626 20.747C19.838 21.6716 18.5839 22.1911 17.2763 22.1911ZM10.7234 7.32052C9.82508 7.32052 8.96354 7.67739 8.32831 8.31262C7.69308 8.94785 7.3362 9.8094 7.3362 10.7077V17.2606C7.3362 18.1589 7.69308 19.0205 8.32831 19.6557C8.96354 20.291 9.82508 20.6478 10.7234 20.6478H17.2763C18.1746 20.6478 19.0362 20.291 19.6714 19.6557C20.3066 19.0205 20.6635 18.1589 20.6635 17.2606V10.7077C20.6635 9.8094 20.3066 8.94785 19.6714 8.31262C19.0362 7.67739 18.1746 7.32052 17.2763 7.32052H10.7234Z" fill="white"/>
<defs>
<linearGradient id="paint0_linear_107:589" x1="0.886376" y1="2.92029" x2="28.8785" y2="26.5676" gradientUnits="userSpaceOnUse">
<stop stop-color="#FBE18A"/>
<stop offset="0.21" stop-color="#FCBB45"/>
<stop offset="0.38" stop-color="#F75274"/>
<stop offset="0.52" stop-color="#D53692"/>
<stop offset="0.74" stop-color="#8F39CE"/>
<stop offset="1" stop-color="#5B4FE9"/>
</linearGradient>
</defs>
</svg>
