<svg width="122" height="122" viewBox="0 0 122 122" fill="none" xmlns="http://www.w3.org/2000/svg">
<g clip-path="url(#clip0_107:476)">
<path d="M-0.00186605 60.3923C0.0699262 59.2317 0.138597 58.068 0.213511 56.9138C0.872655 45.6721 4.69509 34.8566 11.2289 25.7459C16.3954 18.48 23.0565 12.4364 30.7525 8.03207C38.4486 3.62777 46.9963 0.967716 55.8057 0.235525C66.8555 -0.678385 77.4308 1.16528 87.4442 5.99729C99.0434 11.5946 108.032 20.0622 114.41 31.4002C117.936 37.6513 120.277 44.5157 121.311 51.639C123.184 64.6045 121.233 76.9375 115.228 88.5654C110.109 98.4761 102.783 106.331 93.4092 112.229C86.2742 116.74 78.2819 119.68 69.9519 120.856C58.3122 122.519 47.0408 121.08 36.2688 116.267C23.9018 110.735 14.3597 102.002 7.64245 90.0675C4.13769 83.8469 1.80884 77.0186 0.775363 69.933C0.391431 67.2956 0.304031 64.6076 0.0792905 61.945C0.0543193 61.6667 0.0199836 61.3884 -0.0112305 61.1133L-0.00186605 60.3923ZM61.0184 120.23C63.7278 120.005 66.4528 119.894 69.1341 119.54C77.63 118.4 85.7836 115.419 93.0397 110.799C100.296 106.179 106.484 100.029 111.182 92.7681C118.202 81.8848 121.447 68.944 120.405 55.986C119.363 43.028 114.093 30.79 105.427 21.2017C99.0261 14.0339 91.0046 8.54633 82.0504 5.20988C74.1686 2.23706 65.7563 0.982749 57.3633 1.52894C51.1268 1.88337 44.9854 3.23895 39.1686 5.54507C27.5351 10.1779 18.1179 17.6757 11.2196 28.2473C2.24867 42.0034 -0.641753 57.0782 2.81676 73.1744C6.43134 90.0042 15.8892 102.774 30.4006 111.641C39.7898 117.368 50.0623 120.053 61.0184 120.23Z" fill="#666666"/>
<path d="M99.17 86.5589C101.829 87.4665 102.55 89.5378 102.547 92.0392C102.551 94.5051 102.236 96.9609 101.611 99.3441C98.0463 96.147 97.7716 92.017 98.374 87.5582L93.155 91.6692C93.1946 91.7142 93.241 91.7526 93.2924 91.783C95.4461 92.8392 96.3669 94.6828 96.4325 96.9977C96.4938 99.7841 95.967 102.552 94.8874 105.115C94.7064 105.555 94.5472 106.001 94.3256 106.58C93.8012 105.403 93.308 104.331 92.846 103.25C92.2779 101.921 91.7317 100.584 91.1823 99.2492C90.7858 98.3013 90.6148 97.2722 90.6829 96.245C90.7516 95.192 90.6985 94.1326 90.6985 93.0385L86.8279 94.901C87.3742 95.815 88.0016 96.6593 88.4136 97.5953C89.3032 99.6224 89.0722 101.706 88.3481 103.721C87.8049 105.226 87.1182 106.678 86.4752 108.148C86.213 108.739 85.8822 109.302 85.5544 109.932C85.4171 109.359 85.3047 108.796 85.1393 108.249C84.9687 107.526 84.7283 106.822 84.4213 106.146C83.3507 104.141 83.2258 101.994 83.4131 99.8216C83.5224 98.5567 83.7721 97.2918 83.9563 96.0458L79.4646 97.4309C79.8235 98.0634 80.2043 98.6958 80.5102 99.3283C81.4092 101.226 81.481 103.142 80.5102 105.074C79.4084 107.269 78.0693 109.267 76.1215 110.782C75.9098 110.905 75.6832 111 75.4473 111.064C75.3537 110.827 75.1695 110.586 75.1882 110.362C75.2631 109.34 75.3443 108.316 75.5191 107.307C75.9967 104.578 76.518 101.855 77.0236 99.1291C77.0923 98.7623 77.1859 98.3954 77.2858 97.9495L74.077 98.582C74.5483 99.5908 74.1675 100.524 73.9709 101.479C73.8023 102.304 73.7399 103.152 73.5932 103.983C73.4524 104.971 72.9781 105.878 72.251 106.551C70.2096 108.376 68.1432 110.166 66.0831 111.965C65.9839 112.029 65.8794 112.084 65.771 112.129C65.7488 111.757 65.7488 111.383 65.771 111.01C66.0082 109.113 66.2048 107.215 66.5295 105.343C66.9883 102.709 68.6489 100.916 70.7465 99.4516C70.9255 99.3443 71.0739 99.1918 71.1772 99.0089L68.5459 99.2556C68.4881 99.2664 68.4343 99.2926 68.3898 99.3315C67.4534 100.002 66.4858 100.625 65.5993 101.352C64.8992 101.966 64.0778 102.42 63.19 102.686C62.3023 102.952 61.3688 103.022 60.4521 102.892C58.0549 102.576 55.6451 102.345 53.123 102.064C53.2161 101.917 53.3205 101.779 53.4352 101.649C55.2055 99.9671 57.2087 98.5556 59.3815 97.4594C62.1377 96.1407 64.872 96.5518 67.5845 97.6396C67.622 97.6396 67.6688 97.6681 67.6875 97.6966C68.5272 98.9235 69.7102 98.4302 70.8089 98.329C70.9868 98.329 71.1616 98.2848 71.3364 98.2563C71.352 98.2563 71.3645 98.2341 71.4582 98.1519C71.1616 98.0001 70.8838 97.88 70.6279 97.7218C67.5317 95.8025 64.8951 93.2102 62.9086 90.1323C62.7089 89.8161 62.712 89.3923 62.6215 89.0191C62.9836 89.0191 63.38 88.8832 63.7015 88.9907C65.2965 89.5346 66.8603 90.1671 68.4523 90.7173C70.2158 91.3276 71.2615 92.6432 71.9201 94.3034C72.3446 95.3628 72.6911 96.4569 73.0314 97.5479C73.1281 97.8642 73.2218 98.0001 73.5526 97.9369C74.7793 97.6934 76.006 97.4625 77.3482 97.2064C77.2367 97.0931 77.1178 96.9874 76.9924 96.8902C73.8242 94.705 71.4457 91.802 69.5385 88.4752C69.3138 88.0894 69.2982 87.5803 69.1858 87.1249C69.6384 87.1249 70.1441 86.9605 70.5405 87.1249C72.4726 87.8459 74.4173 88.5574 76.2745 89.4524C77.4388 90.0121 78.0318 91.236 78.5469 92.3997C79.0619 93.5634 79.4333 94.7208 79.8672 95.8782C79.9359 96.0648 79.989 96.2545 80.0764 96.5328L84.8771 94.9359V94.784C84.5649 94.6607 84.2528 94.5532 83.9625 94.4141C81.9636 93.5355 80.2445 92.1124 78.9963 90.3031C77.4709 88.0893 75.5996 86.1421 73.4559 84.5382C73.3435 84.4528 73.2342 84.3642 73.1281 84.2757C73.0947 84.2295 73.0664 84.1796 73.0438 84.1271C73.8033 83.7855 74.6493 83.6937 75.4629 83.8646C78.6936 84.3389 81.4373 85.8916 83.8907 87.9756C85.5919 89.4334 86.2599 91.4542 86.4034 93.6678C86.4034 93.8069 86.4034 93.9492 86.4253 94.0883C86.4253 94.1231 86.4659 94.1516 86.5782 94.3097L92.3622 91.3371L92.3185 91.1348L91.3821 90.9988C88.988 90.6477 87.0121 89.4777 85.311 87.789C84.5712 87.0585 83.8533 86.2996 83.0729 85.6197C82.1365 84.7943 81.1158 84.0385 79.7392 83.795C79.8603 83.6945 79.991 83.6066 80.1294 83.5325C81.8275 82.9254 83.5411 82.7483 85.2423 83.4819C86.5408 84.0385 87.8455 84.5919 89.091 85.2529C90.8421 86.1794 91.7348 87.8017 92.2842 89.6484C92.4153 90.0848 92.5089 90.5339 92.6431 91.062C94.7018 89.7786 96.5972 88.2439 98.2866 86.4925C97.6811 86.4608 97.1785 86.4608 96.6853 86.4071C94.2101 86.1288 92.1062 84.9746 90.2053 83.4345C88.9787 82.3778 87.5747 81.553 86.0601 80.9995C85.9311 80.9463 85.8059 80.884 85.6855 80.813L85.467 80.7054L85.492 80.5252C85.7151 80.3936 85.9478 80.2795 86.1881 80.1837C88.2513 79.5259 90.3427 79.6429 92.4309 80.0065C92.8616 80.0824 93.2799 80.2121 93.7106 80.288C96.9007 80.8604 98.0806 83.3839 98.452 85.6386C98.4801 85.7904 98.4957 85.9549 98.5426 86.3027C99.2761 85.354 99.9472 84.5856 100.534 83.7444C101.121 82.9032 101.645 81.9862 102.235 81.0375L102.781 81.2968C101.824 83.2117 100.608 84.9827 99.17 86.5589Z" fill="#666666"/>
<path d="M28.6136 11.9883C28.982 12.6935 29.3097 13.2817 29.6031 13.8857C30.4022 15.5491 31.1857 17.2219 31.9816 18.8885C32.5224 19.9637 32.7825 21.1612 32.737 22.367C32.6902 23.3157 32.737 24.2929 32.737 25.3839L36.7543 23.2304C36.6544 23.107 36.567 22.9868 36.464 22.8793C34.5599 20.8934 33.9013 18.5343 34.4288 15.8337C34.8362 13.6758 35.5678 11.594 36.5982 9.66087C36.8354 9.21498 37.0133 8.73431 37.2474 8.20304C37.391 8.69004 37.5034 9.15174 37.6626 9.5913C37.9144 10.4368 38.2349 11.2597 38.6209 12.0516C39.4165 13.5222 39.835 15.1717 39.8382 16.8488C39.8788 18.5976 39.8382 20.3274 39.3388 22.0761L43.9335 20.4001C43.6994 20.0554 43.4715 19.7392 43.2655 19.4103C42.2105 17.7469 41.5331 15.9507 42.1356 13.9806C42.9532 11.2042 44.5429 8.7252 46.7147 6.84007C47.2297 6.39102 47.5855 6.52385 47.5824 7.20691C47.5836 8.37039 47.5064 9.53261 47.3514 10.6855C46.9488 13.6897 46.4868 16.6939 46.0342 19.7866L49.2336 18.996C48.5438 17.6932 49.3054 16.4662 49.3179 15.2012C49.2945 14.6178 49.3608 14.0342 49.5146 13.4714C49.7892 12.6461 50.0358 11.7005 50.6039 11.1092C52.5673 9.06317 54.6617 7.14681 56.7094 5.18302C56.7944 5.12918 56.8843 5.08367 56.9778 5.04706C56.9778 5.54354 57.0122 5.97675 56.9778 6.40367C56.8061 8.30105 56.6657 10.1984 56.4097 12.0958C56.0789 14.4897 54.6773 16.2385 52.8638 17.6932C52.5766 17.9272 52.2832 18.1485 51.8618 18.4742C52.895 18.3351 53.7565 18.2244 54.6149 18.1011C54.7304 18.0723 54.8374 18.0159 54.9271 17.9367C56.3473 16.8551 57.7145 15.6914 59.2096 14.7269C59.9258 14.2966 60.7463 14.0776 61.5788 14.0944C64.3506 14.1608 67.1224 14.3696 69.9847 14.5277C69.8911 14.7395 69.8786 14.8249 69.8286 14.8724C67.9964 16.7002 66.0392 18.3509 63.7388 19.5684C61.6381 20.6689 59.4437 20.5519 57.2244 20.1028C56.3765 19.9852 55.5829 19.6129 54.9458 19.034C54.7889 18.896 54.5851 18.8257 54.3777 18.8379C53.5505 18.9265 52.7296 19.0593 51.8618 19.1858C51.9243 19.2838 51.943 19.347 51.9805 19.3628C55.4577 20.944 58.1203 23.5339 60.4925 26.478C60.7119 26.7634 60.8983 27.0732 61.0481 27.4014C61.3072 27.9485 61.1636 28.2363 60.5924 28.1225C59.2564 27.8505 57.9392 27.49 56.6251 27.1263C56.0913 26.9809 55.6013 26.6741 55.0644 26.5223C53.4662 26.0606 52.4487 24.9412 51.762 23.5023C51.222 22.3671 50.785 21.1748 50.3386 19.9953C50.2106 19.6569 50.1076 19.502 49.7143 19.6095C48.6999 19.8878 47.6698 20.1155 46.6491 20.3685C46.4649 20.4127 46.287 20.4791 46.1466 20.5234C47.2422 21.3867 48.3628 22.1805 49.3803 23.0912C51.0944 24.6215 52.6034 26.3725 53.8689 28.2995C54.1509 28.7361 54.3913 29.1988 54.5868 29.6815C54.8022 30.2001 54.6461 30.4436 54.0936 30.374C53.2495 30.2766 52.4144 30.1106 51.5965 29.8775C50.6601 29.5929 49.7518 29.1281 48.7873 28.8498C47.0986 28.3565 45.978 27.218 45.2039 25.6875C44.5796 24.4731 44.0896 23.2019 43.5433 21.9528C43.4653 21.7725 43.4091 21.5828 43.3123 21.3203L38.5272 23.1576C39.5042 23.6288 40.4188 24.0051 41.2678 24.4953C42.7526 25.3632 44.0388 26.5401 45.0416 27.9485C46.5274 30.004 48.4751 31.5757 50.504 33.0272C50.6772 33.1379 50.8175 33.2942 50.9098 33.4794C50.3917 33.5838 49.8548 33.8368 49.3491 33.7672C47.8602 33.5648 46.3026 33.451 44.9386 32.8976C43.2003 32.1604 41.5492 31.228 40.0161 30.1179C38.29 28.8972 37.4878 27.0157 37.2069 24.9222C37.1663 24.6408 37.1413 24.3625 37.1039 24.081C37.071 23.9911 37.0302 23.9043 36.9821 23.8217L31.2856 27.0884L31.3542 27.275C31.8911 27.3414 32.4311 27.3951 32.968 27.4742C35.437 27.8442 37.338 29.2482 39.164 30.8642C40.2322 31.7881 41.3515 32.6497 42.5164 33.4446C42.9846 33.7609 43.5901 33.8874 44.2144 34.1309C44.0178 34.2289 43.8554 34.3174 43.6869 34.387C42.7989 34.7732 41.8421 34.9708 40.8757 34.9675C39.9093 34.9643 38.9538 34.7602 38.0684 34.368C37.2256 34.0107 36.3859 33.6375 35.5307 33.3213C33.6578 32.6319 32.4842 31.2658 31.735 29.4665C31.4635 28.834 31.27 28.1446 31.014 27.4046C29.038 28.7491 27.2336 30.3359 25.6421 32.1291C25.7357 32.186 25.7825 32.2366 25.8231 32.2335C28.6074 31.9615 30.989 33.0241 33.2677 34.4819C34.4881 35.263 35.7242 36.0156 36.9852 36.7271C37.5168 36.9802 38.0668 37.1916 38.6302 37.3596L38.649 37.5493C38.459 37.6908 38.2574 37.8157 38.0465 37.9225C36.7064 38.4462 35.2682 38.6622 33.8357 38.5549C32.528 38.49 31.2263 38.3325 29.9402 38.0838C27.2902 37.5525 26.0915 35.6077 25.4891 33.1442C25.4454 32.9703 25.4236 32.7932 25.3705 32.5118C23.972 34.1165 22.815 35.9216 21.937 37.8687L21.3533 37.581C22.2068 35.6508 23.3192 33.8492 24.6588 32.2271C24.5933 32.1671 24.5621 32.1133 24.5152 32.1006C22.2772 31.4682 21.3533 29.7732 21.1379 27.6228C20.9221 25.2548 21.0388 22.8678 21.4844 20.5329C21.5405 20.2167 21.5811 19.9004 21.6436 19.4862C25.3611 22.5378 25.8606 26.6299 25.4111 31.1614L30.4802 26.788C30.4088 26.7416 30.3348 26.6994 30.2586 26.6615C28.1298 25.7128 27.1372 23.9387 26.9562 21.6713C26.7656 18.8089 27.1916 15.9387 28.2047 13.2596C28.3358 12.8959 28.4451 12.5101 28.6136 11.9883Z" fill="#666666"/>
<path d="M102.273 63.338H92.5307C92.5775 65.2354 92.8428 67.0284 94.3785 68.189C96.8475 70.0389 99.2104 69.0903 101.48 67.6166C101.711 68.6665 101.692 68.7487 100.83 69.2484C99.2801 70.1923 97.4351 70.5085 95.6645 70.1338C94.7999 69.9679 93.9955 69.5686 93.3362 68.9781C92.677 68.3876 92.1873 67.6277 91.9189 66.7786C90.9387 63.9768 90.9138 61.1971 92.6461 58.6451C94.0164 56.6339 96.0079 55.9635 98.3365 56.3525C98.9678 56.4575 99.5665 56.7091 100.086 57.0877C100.605 57.4662 101.031 57.9614 101.33 58.5344C102.145 59.9954 102.341 61.5893 102.273 63.338ZM92.6586 62.1711H100.955C101.074 59.831 99.8753 57.4276 97.2877 57.3581C94.3255 57.2664 92.7491 59.7772 92.6586 62.1711Z" fill="#666666"/>
<path d="M65.9556 63.2906C65.7589 64.2899 65.6684 65.324 65.3313 66.2758C64.3075 69.2421 61.8166 70.5165 58.87 70.2508C55.4926 69.9346 53.7009 67.2593 53.4107 64.5144C53.2078 62.617 53.3826 60.7734 54.3783 59.1037C54.7559 58.4376 55.2675 57.8594 55.88 57.4066C56.4925 56.9539 57.1922 56.6368 57.9336 56.4758C59.9687 56.0173 61.9414 56.1596 63.6208 57.5668C65.0785 58.8033 65.6622 60.4888 65.8057 62.3577C65.8276 62.6739 65.8057 62.9617 65.8057 63.2621L65.9556 63.2906ZM64.5822 63.2178C64.5509 62.7372 64.5447 62.2691 64.4854 61.7758C64.2076 59.5274 62.8935 57.9147 61.0206 57.5004C58.6765 56.9786 56.5227 57.747 55.4833 59.6697C54.8903 60.7256 54.5658 61.9142 54.5391 63.1287C54.5124 64.3432 54.7843 65.5453 55.3303 66.6268C56.1793 68.423 57.7556 69.1757 59.6628 69.1567C61.57 69.1377 63.0589 68.4135 63.9173 66.6078C64.3933 65.5447 64.6208 64.3846 64.5822 63.2178Z" fill="#666666"/>
<path d="M33.3115 56.577C33.536 56.5916 33.7612 56.5916 33.9857 56.577C34.4664 56.5011 34.6849 56.7193 34.8473 57.1684C35.9273 60.1504 37.0322 63.1198 38.1278 66.0956C38.3963 66.8292 38.6585 67.5629 38.9675 68.4262C39.0892 68.0562 39.1673 67.7937 39.2796 67.5123C40.6094 64.0063 41.9401 60.4983 43.2719 56.9881C43.5841 56.1944 44.1834 56.7667 44.7608 56.4853C44.2146 57.8988 43.7401 59.1258 43.2594 60.3528C42.0795 63.3602 40.8903 66.3612 39.7229 69.3749C39.5668 69.7765 39.4107 69.9789 38.93 69.9789C38.4493 69.9789 38.3058 69.7512 38.1497 69.3464C36.6077 65.2512 35.0283 61.1655 33.4832 57.0798C33.4239 56.9438 33.3864 56.811 33.3115 56.577Z" fill="#666666"/>
<path d="M23.4262 69.9157H22.2026V51.258H23.4262V69.9157Z" fill="#666666"/>
<path d="M76.3433 56.5928H77.4607V59.1511H77.5793C77.7729 58.7906 77.9352 58.4112 78.1599 58.0728C78.9153 56.9249 79.9485 56.2766 81.3469 56.2956C82.5081 56.2956 82.661 56.4853 82.4987 57.7439C82.1468 57.5598 81.7615 57.4506 81.3665 57.4229C80.9714 57.3951 80.5749 57.4495 80.2013 57.5827C79.0027 58.0444 78.3441 59.0278 77.9882 60.1884C77.7112 61.0891 77.5506 62.0223 77.5107 62.9649C77.4389 65.033 77.4826 67.1075 77.4795 69.182V69.8809H76.3433V56.5928Z" fill="#666666"/>
<path d="M99.6037 50.186C98.5455 51.609 97.5748 52.9783 96.5166 54.2748C96.3262 54.5088 95.7799 54.4488 95.3991 54.5247L95.3242 54.3602L97.5872 51.1347C97.6216 51.0872 97.6622 51.043 97.6965 50.9924C98.3301 50.0974 98.3301 50.0974 99.6037 50.186Z" fill="#666666"/>
</g>
<defs>
<clipPath id="clip0_107:476">
<rect width="122" height="121.521" fill="white"/>
</clipPath>
</defs>
</svg>
