<svg width="28" height="28" viewBox="0 0 28 28" fill="none" xmlns="http://www.w3.org/2000/svg">
<path d="M14 28C21.732 28 28 21.732 28 14C28 6.26801 21.732 0 14 0C6.26801 0 0 6.26801 0 14C0 21.732 6.26801 28 14 28Z" fill="#6E845F"/>
<path d="M6.00843 7.19264L12.9163 14.3546C13.11 14.5573 13.3489 14.7198 13.617 14.8311C13.8851 14.9424 14.1761 15 14.4705 15C14.765 15 15.056 14.9424 15.3241 14.8311C15.5921 14.7198 15.8311 14.5573 16.0248 14.3546L22.8147 7.31586C22.8664 7.25941 22.9292 7.21238 23 7.17724C22.7054 7.05882 22.3868 6.99846 22.0649 7.00011H6.90139C6.592 6.9972 6.28523 7.05223 6 7.16183L6.00843 7.19264Z" fill="white"/>
<path d="M23.6534 8C23.6232 8.07595 23.5795 8.14638 23.5244 8.2082L17.0271 15.2556C16.7094 15.6015 16.3182 15.8786 15.8796 16.0684C15.4411 16.2582 14.9652 16.3564 14.4839 16.3564C14.0025 16.3564 13.5267 16.2582 13.0881 16.0684C12.6495 15.8786 12.2583 15.6015 11.9406 15.2556L5.32244 8.08483V8.03857C5.11317 8.37165 5.00178 8.75257 5 9.14117V18.8565C5 19.1386 5.05823 19.418 5.17135 19.6785C5.28448 19.9391 5.45027 20.1757 5.65922 20.3749C5.86817 20.574 6.11616 20.7318 6.38898 20.839C6.6618 20.9463 6.95407 21.001 7.24904 21H21.759C22.0536 21.001 22.3455 20.9463 22.6179 20.8389C22.8902 20.7315 23.1377 20.5737 23.346 20.3744C23.5543 20.1752 23.7193 19.9385 23.8316 19.678C23.9438 19.4174 24.0011 19.1382 24 18.8565V9.14117C23.9992 8.73714 23.879 8.34154 23.6534 8Z" fill="white"/>
</svg>
