<svg width="28" height="29" viewBox="0 0 28 29" fill="none" xmlns="http://www.w3.org/2000/svg">
<path d="M14 29C21.732 29 28 22.5081 28 14.5C28 6.49187 21.732 0 14 0C6.26801 0 0 6.49187 0 14.5C0 22.5081 6.26801 29 14 29Z" fill="#EFC16D"/>
<path d="M13.9962 5C13.0774 5 12.1677 5.18964 11.3189 5.55809C10.47 5.92654 9.69878 6.46658 9.04913 7.14739C8.39947 7.82819 7.88415 8.63644 7.53256 9.52595C7.18097 10.4155 7 11.3688 7 12.3316C7 15.7923 12.0839 22.0374 13.5891 23.7999C13.6396 23.8626 13.7025 23.913 13.7735 23.9475C13.8444 23.9821 13.9217 24 14 24C14.0783 24 14.1556 23.9821 14.2265 23.9475C14.2975 23.913 14.3604 23.8626 14.4109 23.7999C15.9084 22.0374 21 15.7923 21 12.3316C21 11.3682 20.8188 10.4141 20.4667 9.52409C20.1146 8.63404 19.5986 7.82547 18.9482 7.14456C18.2977 6.46365 17.5255 5.92376 16.6758 5.55578C15.8261 5.1878 14.9156 4.99895 13.9962 5ZM13.9962 15.6072C13.3108 15.6072 12.6409 15.3941 12.0711 14.9949C11.5014 14.5957 11.0575 14.0284 10.7956 13.3647C10.5336 12.701 10.4655 11.9708 10.5998 11.2665C10.734 10.5622 11.0647 9.91547 11.5498 9.40819C12.035 8.9009 12.6528 8.55585 13.3252 8.41671C13.9975 8.27757 14.6942 8.3506 15.3269 8.62655C15.9597 8.90251 16.5001 9.36896 16.8797 9.96691C17.2594 10.5649 17.4612 11.2674 17.4597 11.9856C17.4516 12.9426 17.0831 13.8576 16.4344 14.5313C15.7858 15.2051 14.9094 15.5831 13.9962 15.583V15.6072Z" fill="white"/>
</svg>
